<svg xmlns="http://www.w3.org/2000/svg" xmlns:xlink="http://www.w3.org/1999/xlink" viewBox="0,0,256,256" width="24px" height="24px" fill-rule="nonzero"><g fill="#949696" fill-rule="nonzero" stroke="none" stroke-width="1" stroke-linecap="butt" stroke-linejoin="miter" stroke-miterlimit="10" stroke-dasharray="" stroke-dashoffset="0" font-family="none" font-weight="none" font-size="none" text-anchor="none" style="mix-blend-mode: normal"><g transform="scale(10.66667,10.66667)"><path d="M12,1c-2.45746,0 -4.56978,1.50416 -5.5,3.64844c-0.15782,0.3303 -0.12258,0.72044 0.09189,1.0171c0.21447,0.29666 0.57388,0.45245 0.93701,0.40614c0.36313,-0.04631 0.67194,-0.28732 0.80508,-0.62832c0.62978,-1.45172 2.01947,-2.44336 3.66602,-2.44336c2.27619,0 4,1.72381 4,4v1h-10c-1.1,0 -2,0.9 -2,2v10c0,1.1 0.9,2 2,2h12c1.1,0 2,-0.9 2,-2v-10c0,-1.1 -0.9,-2 -2,-2v-1c0,-3.32381 -2.67619,-6 -6,-6zM12,13c1.1,0 2,0.9 2,2c0,1.1 -0.9,2 -2,2c-1.1,0 -2,-0.9 -2,-2c0,-1.1 0.9,-2 2,-2z"></path></g></g></svg>