<svg xmlns="http://www.w3.org/2000/svg" xmlns:xlink="http://www.w3.org/1999/xlink" viewBox="0,0,256,256" width="24px" height="24px" fill-rule="nonzero"><g fill="#949696" fill-rule="nonzero" stroke="none" stroke-width="1" stroke-linecap="butt" stroke-linejoin="miter" stroke-miterlimit="10" stroke-dasharray="" stroke-dashoffset="0" font-family="none" font-weight="none" font-size="none" text-anchor="none" style="mix-blend-mode: normal"><g transform="scale(10.66667,10.66667)"><path d="M14.49023,2.49023c-0.40692,0.00011 -0.77321,0.24676 -0.92633,0.62377c-0.15312,0.37701 -0.06255,0.80921 0.22907,1.09303l0.5957,0.5957l-6.19922,4.97266l-0.98242,-0.98242c-0.18827,-0.19353 -0.4468,-0.30272 -0.7168,-0.30273c-0.40692,0.00011 -0.77321,0.24676 -0.92633,0.62377c-0.15312,0.37701 -0.06255,0.80921 0.22907,1.09303l3.30078,3.30078l-5.80469,5.80274c-0.387,0.387 -0.387,1.01339 0,1.40039c0.387,0.387 1.01339,0.387 1.40039,0l5.80273,-5.80469l3.30078,3.30078c0.25082,0.26124 0.62327,0.36648 0.97371,0.27512c0.35044,-0.09136 0.62411,-0.36503 0.71547,-0.71547c0.09136,-0.35044 -0.01388,-0.72289 -0.27512,-0.97371l-0.89648,-0.89649l4.9043,-6.26758l0.57813,0.57812c0.25082,0.26124 0.62327,0.36647 0.97371,0.27512c0.35044,-0.09136 0.62411,-0.36503 0.71547,-0.71547c0.09136,-0.35044 -0.01388,-0.72289 -0.27512,-0.97371l-6,-6c-0.18827,-0.19353 -0.4468,-0.30272 -0.7168,-0.30273z"></path></g></g></svg>